<?xml version="1.0" encoding="UTF-8" standalone="no"?>
<!-- Created with Inkscape (http://www.inkscape.org/) -->

<svg
   xmlns:dc="http://purl.org/dc/elements/1.1/"
   xmlns:cc="http://creativecommons.org/ns#"
   xmlns:rdf="http://www.w3.org/1999/02/22-rdf-syntax-ns#"
   xmlns:svg="http://www.w3.org/2000/svg"
   xmlns="http://www.w3.org/2000/svg"
   xmlns:sodipodi="http://sodipodi.sourceforge.net/DTD/sodipodi-0.dtd"
   xmlns:inkscape="http://www.inkscape.org/namespaces/inkscape"
   width="210mm"
   height="297mm"
   viewBox="0 0 744.09448819 1052.3622047"
   id="svg2"
   version="1.1"
   inkscape:version="0.91 r13725"
   sodipodi:docname="remove-dimensionII.svg"
   inkscape:export-filename="/home/jappie/Documents/Dropbox/Huiswerk/AI/evolutionaryComputation/seminar/remove-dimensionII.png"
   inkscape:export-xdpi="90"
   inkscape:export-ydpi="90">
  <defs
     id="defs4">
    <marker
       inkscape:stockid="Arrow1Lend"
       orient="auto"
       refY="0.0"
       refX="0.0"
       id="Arrow1Lend"
       style="overflow:visible;"
       inkscape:isstock="true">
      <path
         id="path4278"
         d="M 0.0,0.0 L 5.0,-5.0 L -12.5,0.0 L 5.0,5.0 L 0.0,0.0 z "
         style="fill-rule:evenodd;stroke:#000000;stroke-width:1pt;stroke-opacity:1;fill:#000000;fill-opacity:1"
         transform="scale(0.8) rotate(180) translate(12.5,0)" />
    </marker>
    <marker
       inkscape:stockid="Arrow2Lstart"
       orient="auto"
       refY="0.0"
       refX="0.0"
       id="Arrow2Lstart"
       style="overflow:visible"
       inkscape:isstock="true">
      <path
         id="path4293"
         style="fill-rule:evenodd;stroke-width:0.625;stroke-linejoin:round;stroke:#000000;stroke-opacity:1;fill:#000000;fill-opacity:1"
         d="M 8.7185878,4.0337352 L -2.2072895,0.016013256 L 8.7185884,-4.0017078 C 6.9730900,-1.6296469 6.9831476,1.6157441 8.7185878,4.0337352 z "
         transform="scale(1.1) translate(1,0)" />
    </marker>
    <marker
       inkscape:stockid="Arrow1Lend"
       orient="auto"
       refY="0"
       refX="0"
       id="Arrow1Lend-7"
       style="overflow:visible"
       inkscape:isstock="true">
      <path
         inkscape:connector-curvature="0"
         id="path4278-6"
         d="M 0,0 5,-5 -12.5,0 5,5 0,0 Z"
         style="fill:#000000;fill-opacity:1;fill-rule:evenodd;stroke:#000000;stroke-width:1pt;stroke-opacity:1"
         transform="matrix(-0.8,0,0,-0.8,-10,0)" />
    </marker>
    <marker
       inkscape:stockid="Arrow1Lend"
       orient="auto"
       refY="0"
       refX="0"
       id="Arrow1Lend-0"
       style="overflow:visible"
       inkscape:isstock="true">
      <path
         inkscape:connector-curvature="0"
         id="path4278-8"
         d="M 0,0 5,-5 -12.5,0 5,5 0,0 Z"
         style="fill:#000000;fill-opacity:1;fill-rule:evenodd;stroke:#000000;stroke-width:1pt;stroke-opacity:1"
         transform="matrix(-0.8,0,0,-0.8,-10,0)" />
    </marker>
  </defs>
  <sodipodi:namedview
     id="base"
     pagecolor="#ffffff"
     bordercolor="#666666"
     borderopacity="1.0"
     inkscape:pageopacity="0.0"
     inkscape:pageshadow="2"
     inkscape:zoom="0.98994949"
     inkscape:cx="-44.428718"
     inkscape:cy="468.04324"
     inkscape:document-units="px"
     inkscape:current-layer="layer4"
     showgrid="false"
     inkscape:window-width="1920"
     inkscape:window-height="1080"
     inkscape:window-x="0"
     inkscape:window-y="0"
     inkscape:window-maximized="0" />
  <metadata
     id="metadata7">
    <rdf:RDF>
      <cc:Work
         rdf:about="">
        <dc:format>image/svg+xml</dc:format>
        <dc:type
           rdf:resource="http://purl.org/dc/dcmitype/StillImage" />
        <dc:title />
      </cc:Work>
    </rdf:RDF>
  </metadata>
  <g
     inkscape:label="Graph"
     inkscape:groupmode="layer"
     id="layer1"
     style="display:inline">
    <rect
       style="fill:#000000"
       id="rect3336"
       width="14.142136"
       height="824.28448"
       x="59.598999"
       y="122.01171" />
    <rect
       style="fill:#000000"
       id="rect3338"
       width="660.63977"
       height="14.142136"
       x="63.63961"
       y="936.19464" />
    <text
       xml:space="preserve"
       style="font-style:normal;font-weight:normal;font-size:40px;line-height:125%;font-family:Sans;letter-spacing:0px;word-spacing:0px;fill:#000000;fill-opacity:1;stroke:none;stroke-width:1px;stroke-linecap:butt;stroke-linejoin:miter;stroke-opacity:1"
       x="218.19295"
       y="988.7226"
       id="text3340"
       sodipodi:linespacing="125%"><tspan
         sodipodi:role="line"
         id="tspan3342"
         x="218.19295"
         y="988.7226">Damage received -&gt;</tspan></text>
    <text
       xml:space="preserve"
       style="font-style:normal;font-weight:normal;font-size:40px;line-height:125%;font-family:Sans;letter-spacing:0px;word-spacing:0px;display:inline;fill:#000000;fill-opacity:1;stroke:none;stroke-width:1px;stroke-linecap:butt;stroke-linejoin:miter;stroke-opacity:1"
       x="-551.44977"
       y="46.472893"
       id="text3340-7"
       sodipodi:linespacing="125%"
       transform="matrix(-0.00193055,-0.99999814,0.99999814,-0.00193055,0,0)"><tspan
         sodipodi:role="line"
         id="tspan3342-3"
         x="-551.44977"
         y="46.472893">Damage dealt -&gt;</tspan></text>
  </g>
  <g
     inkscape:groupmode="layer"
     id="layer3"
     inkscape:label="Dominated"
     style="display:inline">
    <circle
       style="fill:#008000;stroke:#000000"
       id="path3365-74"
       cx="97.896057"
       cy="766.99408"
       r="12.121831" />
    <circle
       style="fill:#008000;stroke:#000000"
       id="path3365-74-9"
       cx="93.657501"
       cy="630.62354"
       r="12.121831" />
    <circle
       style="fill:#008000;stroke:#000000"
       id="path3365-74-0"
       cx="94.048401"
       cy="508.39514"
       r="12.121831" />
    <circle
       style="fill:#008000;stroke:#000000"
       id="path3365-74-96"
       cx="94.286957"
       cy="558.90271"
       r="12.121831" />
    <circle
       style="fill:#008000;stroke:#000000"
       id="path3365-74-1"
       cx="93.002693"
       cy="486.17169"
       r="12.121831" />
    <ellipse
       style="fill:#008000;stroke:#000000"
       id="path3365-74-06"
       cy="696.28345"
       cx="369.21078"
       r="12.121831" />
    <circle
       style="fill:#008000;stroke:#000000"
       id="path3365-74-5"
       cx="97.571167"
       cy="861.94849"
       r="12.121831" />
    <path
       style="fill:#000000;stroke:#000000"
       id="path3451"
       d="m 178.99709,976.23646 c 5.58244,0.0908 11.16611,0.0765 16.74913,0.0785 5.81606,-0.0265 11.63205,-0.009 17.44808,-0.005 5.1541,-0.006 10.30817,-0.0236 15.46226,-0.0331 4.52587,-0.005 9.05173,0.006 13.57761,0.003 3.9755,-0.0264 7.92578,-0.55541 11.89541,-0.78227 3.75708,-0.48861 7.42648,-1.42778 11.19165,-1.88921 4.08015,-0.51468 8.16211,-0.92072 12.27248,-1.12907 4.48852,-0.19542 8.98188,-0.23789 13.47402,-0.26203 3.03892,-0.0225 6.07789,-0.0183 9.11685,-0.0216 2.4866,-0.0116 4.97317,0.004 7.45976,0.006 2.88071,0.075 5.7925,-0.15351 8.59247,-0.85049 2.77934,-0.77378 5.67223,-0.94539 8.54003,-1.06728 2.82907,-0.11197 5.66038,-0.11619 8.49111,-0.1172 2.40652,-0.004 4.81301,0.003 7.21951,0.007 2.52764,-0.69701 4.39881,-0.76271 7.00307,-0.32845 3.1685,0.53651 6.25594,1.43338 9.41995,2.0086 1.49562,0.48403 2.95808,1.02877 4.51426,1.27638 0.73258,0.14166 1.46888,0.0645 2.20865,0.0679 2.60725,0.0302 5.21471,0.0317 7.82204,0.0135 1.94581,-0.029 3.89177,-0.0199 5.83764,-0.007 3.36605,0.0202 6.73216,0.0304 10.09827,0.0257 2.95836,-0.012 5.91671,-0.0205 8.8751,-0.0159 2.63149,0.0118 5.26293,-0.0136 7.8944,-0.01 2.99899,0.007 5.99798,0.0163 8.99697,0.0232 3.89368,0.008 7.78737,0.009 11.68106,0.01 4.43503,-8.8e-4 8.87004,0.0105 13.30506,0.018 4.84618,0.009 9.69243,0.005 14.53858,-0.0139 3.75776,-0.006 7.51552,-0.0141 11.27328,-0.0131 3.3594,0.0597 6.68828,0.0394 10.02462,-0.35751 3.1376,-0.37014 6.29334,-0.52801 9.44949,-0.61967 3.30103,-0.4054 6.59952,-0.78718 9.89519,-1.23066 4.17563,-0.34873 8.32971,-0.8604 12.4997,-1.26738 4.88029,-0.67482 9.6665,-1.81815 14.38744,-3.20724 4.56239,-1.23859 9.19224,-2.37747 13.62316,-4.03919 2.45818,-0.97532 5.02349,-1.25446 7.63933,-1.36434 3.0541,0.0808 6.0562,-0.15292 9.07065,-0.61608 2.36786,-0.39448 4.77461,-0.39791 7.16801,-0.4277 2.21606,-0.0245 4.43225,-0.0317 6.64835,-0.052 1.31803,0.002 2.63607,0.002 3.95411,0.006 2.31668,-0.11247 4.58724,0.2051 6.83819,0.73089 2.80005,0.79796 5.47235,1.94387 8.25752,2.7867 1.14043,0.42435 2.30038,0.55555 3.50348,0.55219 1.96699,0.003 3.93398,0.005 5.90097,0.003 3.34736,-0.15991 6.65906,0.22849 9.98518,0.52831 2.65384,0.25082 5.31515,0.3952 7.97973,0.45028 2.33427,-0.1405 4.5868,0.16349 6.87146,0.58243 1.61091,0.39213 3.26774,0.3013 4.88411,0.61795 2.21863,0.37393 4.42497,0.64289 6.61664,1.1492 1.39145,0.34156 2.80088,0.61721 4.23416,0.67039 1.57159,0.0913 3.1618,-0.1453 4.6952,0.23736 1.74739,0.53602 3.59226,0.48531 5.35193,0.92176 1.8562,0.48627 3.76419,0.70148 5.67453,0.82226 0.63802,0.16141 1.36904,-0.0934 2.00254,0.0565 0.49497,0.11709 0.93105,0.51039 1.39683,0.71057 0.7619,0.40307 1.50543,0.14413 2.245,0.59688 0,0 -12.52733,8.42085 -12.52733,8.42085 l 0,0 c -0.82726,0.0267 -1.5681,-0.31291 -2.29533,-0.67015 -0.95162,-0.44874 -2.03814,-0.19016 -3.06175,-0.37962 -1.9371,-0.20651 -3.85493,-0.52882 -5.75383,-0.96671 -1.78561,-0.25073 -3.5716,-0.47924 -5.33694,-0.8556 -1.5521,-0.0613 -3.10857,-0.001 -4.6575,-0.13837 -1.45135,-0.18541 -2.87254,-0.54108 -4.29584,-0.87356 -2.16641,-0.45957 -4.37407,-0.66802 -6.55426,-1.05524 -1.65281,-0.14651 -3.30636,-0.25441 -4.9252,-0.65123 -2.23059,-0.38809 -4.46583,-0.42367 -6.72758,-0.4125 -2.65405,-0.0993 -5.29997,-0.32319 -7.94257,-0.58675 -3.3226,-0.29191 -6.63999,-0.50562 -9.97815,-0.36457 -2.00739,0.009 -4.0167,0.0541 -6.02319,-0.0125 -1.26575,-0.12392 -2.47112,-0.48577 -3.66497,-0.91941 -2.69873,-0.92216 -5.33169,-2.05622 -8.1257,-2.67435 -2.23865,-0.38108 -4.47813,-0.53108 -6.74911,-0.42754 -1.31876,0.002 -2.63753,-10e-4 -3.95628,-0.005 -2.18313,-0.0251 -4.36682,-0.0241 -6.54967,0.0223 -2.37114,0.0733 -4.73888,0.19751 -7.08435,0.57766 -3.03265,0.36038 -6.06759,0.41132 -9.11694,0.52086 -2.53704,0.22972 -4.9964,0.74345 -7.38139,1.66524 -4.47535,1.39452 -8.98107,2.67594 -13.51549,3.86475 -4.79725,1.36927 -9.67458,2.47489 -14.63491,3.06298 -4.1645,0.45848 -8.33546,0.83573 -12.49578,1.32507 -3.33469,0.46488 -6.6805,0.87793 -10.03703,1.14375 -3.13174,0.11467 -6.25889,0.32457 -9.37182,0.6947 -3.35983,0.30264 -6.72589,0.22696 -10.09661,0.21775 -3.74574,10e-4 -7.49147,-0.007 -11.2372,-0.0131 -4.83336,-0.0187 -9.66681,-0.0225 -14.50019,-0.014 -4.45158,0.007 -8.90316,0.0189 -13.35475,0.0181 -3.90289,9.6e-4 -7.80577,0.002 -11.70864,0.01 -3.02029,0.007 -6.04057,0.0162 -9.06084,0.0232 -2.62262,0.004 -5.24522,-0.0215 -7.86786,-0.01 -2.94376,0.005 -5.88747,-0.004 -8.83121,-0.016 -3.38963,-0.005 -6.77928,0.006 -10.16886,0.0258 -1.94145,0.0129 -3.88298,0.0235 -5.82441,-3.9e-4 -2.63305,-0.0124 -5.26605,4.2e-4 -7.89896,0.0305 -0.81643,-0.005 -1.60409,-0.0775 -2.3925,-0.30435 -1.49789,-0.37771 -2.92411,-0.98473 -4.43408,-1.3182 -3.09841,-0.66831 -6.15201,-1.58041 -9.30716,-1.94668 -2.37152,-0.16544 -4.59249,0.33531 -6.94443,0.50326 -2.40232,-10e-4 -4.8046,-0.005 -7.20692,-0.012 -2.80456,0.005 -5.61085,0.0147 -8.41231,0.16118 -2.84555,0.1979 -5.66813,0.54583 -8.4362,1.26074 -2.90282,0.46753 -5.82795,0.70971 -8.77075,0.60759 -2.48894,0.002 -4.97787,0.0154 -7.4668,-0.003 -3.01312,-0.0107 -6.02624,-0.0193 -9.03937,-0.024 -4.46129,0.0168 -8.92472,0.0443 -13.38044,0.29263 -4.1111,0.27229 -8.19338,0.75167 -12.27927,1.27425 -3.75053,0.55319 -7.44069,1.48956 -11.22643,1.78164 -3.96884,0.2676 -7.93014,0.77841 -11.9146,0.6818 -4.52885,-0.002 -9.05769,0.009 -13.58653,0.003 -5.1237,-0.01 -10.24738,-0.0273 -15.37108,-0.0331 -5.81177,0.004 -11.62351,0.022 -17.4353,-0.005 -5.65509,0.002 -11.31077,-0.0111 -16.96529,0.0785 0,0 12.12568,-8.80983 12.12568,-8.80983 z"
       inkscape:connector-curvature="0" />
    <path
       style="fill:none;fill-rule:evenodd;stroke:#000000;stroke-width:0;stroke-linecap:butt;stroke-linejoin:miter;stroke-miterlimit:4;stroke-dasharray:none;stroke-opacity:1"
       d="M 420.22346,753.35705 195.96959,561.42807 104.04571,550.31639"
       id="path4267"
       inkscape:connector-curvature="0"
       sodipodi:nodetypes="ccc" />
  </g>
  <g
     inkscape:groupmode="layer"
     id="layer4"
     inkscape:label="Dominated II"
     style="display:inline">
    <circle
       style="display:inline;fill:#ff0000;stroke:#000000"
       id="path3365-74-7"
       cx="96.255981"
       cy="697.0379"
       r="12.121831" />
    <circle
       style="display:inline;fill:#ff0000;stroke:#000000"
       id="path3365-74-03"
       cx="96.616417"
       cy="805.12421"
       r="12.121831" />
    <circle
       style="display:inline;fill:#ff0000;stroke:#000000"
       id="path3365-74-3"
       cx="98.514862"
       cy="868.76385"
       r="12.121831" />
    <circle
       style="display:inline;fill:#ff0000;stroke:#000000"
       id="path3365-74-4"
       cx="92.885437"
       cy="641.47949"
       r="12.121831" />
    <circle
       style="display:inline;fill:#ff0000;stroke:#000000"
       id="path3365-74-16"
       cx="92.6875"
       cy="609.15466"
       r="12.121831" />
  </g>
</svg>
